<svg width="26" height="26" viewBox="0 0 26 26" fill="none" xmlns="http://www.w3.org/2000/svg">
<path d="M10.463 10.3013C10.463 9.07483 9.62864 9.07483 9.62864 9.07483H9.18684H6.19585V11.7065H9.41586C9.9723 11.7062 10.463 11.5283 10.463 10.3013Z" fill="white"/>
<path d="M9.62891 13.5242H6.19585V16.6762H9.47038C9.96299 16.6621 10.8721 16.5078 10.8721 15.1441C10.8721 13.5077 9.62891 13.5242 9.62891 13.5242Z" fill="white"/>
<path d="M18.4176 11.7063C16.5958 11.7063 16.3418 13.5243 16.3418 13.5243H20.2159C20.2162 13.5243 20.2393 11.7063 18.4176 11.7063Z" fill="white"/>
<path d="M13 0C5.82028 0 0 5.82054 0 13C0 20.1795 5.82028 26 13 26C20.1797 26 26 20.1795 26 13C26 5.82054 20.1797 0 13 0ZM15.8343 7.67313H20.7003V9.1254H15.8343V7.67313ZM13.375 15.2904C13.375 18.89 9.62891 18.7716 9.62891 18.7716H6.19585H6.09504H3.49185V6.97837H6.09504H6.19585H9.62864C11.4937 6.97837 12.966 8.008 12.966 10.1183C12.966 12.2289 11.1663 12.3627 11.1663 12.3627C13.5386 12.3627 13.375 15.2904 13.375 15.2904ZM18.4407 17.1504C20.401 17.1504 20.3316 15.8817 20.3316 15.8817H22.4071C22.4071 19.2488 18.3716 19.0182 18.3716 19.0182C13.5288 19.0182 13.8402 14.5097 13.8402 14.5097C13.8402 14.5097 13.8365 9.97895 18.371 9.97895C23.1447 9.97895 22.4762 15.0978 22.4762 15.0978H16.3652C16.3652 17.2893 18.4407 17.1504 18.4407 17.1504Z" fill="white"/>
</svg>
