<svg width="26" height="26" viewBox="0 0 26 26" fill="none" xmlns="http://www.w3.org/2000/svg">
<path d="M8.92579 15.9555C10.1765 16.1993 11.3969 16.5344 12.5561 16.9C11.0156 19.7184 9.10884 22.2625 6.86645 24.4105C3.57165 22.6434 1.06481 19.4898 0.256403 15.727C2.68183 15.2395 5.67669 15.3004 8.92579 15.9555Z" fill="white"/>
<path d="M21.2662 22.9481L21.0526 22.1102C20.7171 20.7696 17.8799 18.8501 14.1579 17.4637L13.9901 17.4028C12.4799 20.2516 10.5732 22.8415 8.34614 25.0809C9.78001 25.6445 11.3511 26 12.9833 26C15.8967 26 18.612 24.9742 20.7781 23.3442C20.9458 23.2223 21.1137 23.1004 21.2662 22.9481Z" fill="white"/>
<path d="M14.585 12.3755C14.1884 13.4571 13.746 14.5082 13.2579 15.529C11.9766 15.1024 10.619 14.7368 9.23081 14.4626C7.72067 14.1579 5.75296 13.8837 3.67842 13.8837C2.48856 13.8837 1.2174 13.9751 0.0123891 14.2037C-0.0181696 13.8076 0.0174229 13.4114 0.0174229 13.0001C0.0174229 8.99345 1.8479 5.41343 4.70039 3.03687C4.71564 3.12827 4.73095 3.21968 4.7461 3.31109C5.3258 6.81489 9.3834 10.5168 14.585 12.3755Z" fill="white"/>
<path d="M15.0883 10.9434C16.1256 7.68327 16.7053 4.14382 16.7662 0.563693C15.5765 0.198068 14.2951 2.09808e-05 12.9833 2.09808e-05C10.5274 2.09808e-05 8.22405 0.736348 6.27149 1.92468C6.19522 2.2903 6.19522 2.67116 6.25634 3.06726C6.72921 5.9465 10.5121 9.28282 15.0883 10.9434Z" fill="white"/>
<path d="M25.8627 11.1567C25.222 6.69297 22.2577 2.96066 18.2612 1.17819C18.1544 4.71256 17.5442 8.15557 16.5222 11.4005C19.9391 12.345 23.1781 12.2383 25.8627 11.1567Z" fill="white"/>
<path d="M26 13V12.7258C23.0865 13.8075 19.634 13.8532 16.0341 12.8325C15.6375 13.9293 15.1799 14.9957 14.6917 16.0316C17.199 16.9718 21.8782 19.1357 22.5323 21.7445C24.6526 19.4442 26 16.3669 26 13Z" fill="white"/>
</svg>
