<svg width="41" height="41" viewBox="0 0 41 41" fill="none" xmlns="http://www.w3.org/2000/svg">
<path d="M5.11296 11.3736H17.2828L19.8194 13.9102C19.9943 14.085 20.2263 14.1776 20.463 14.1776C20.5806 14.1776 20.6993 14.1548 20.8127 14.1078C21.1545 13.9662 21.3753 13.6356 21.3753 13.2658V11.2455C22.3145 10.922 22.9702 10.0241 22.9702 9.01112V2.3632C22.9702 1.06049 21.9105 0.000732422 20.6078 0.000732422H5.11296C3.81025 0.000732422 2.7505 1.06049 2.7505 2.3632V2.84863C2.7505 3.18039 3.01932 3.44922 3.35108 3.44922C3.68285 3.44922 3.95167 3.18039 3.95167 2.84863V2.3632C3.95167 1.72289 4.47266 1.2019 5.11296 1.2019H20.6078C21.2481 1.2019 21.7691 1.72289 21.7691 2.3632V9.01112C21.7691 9.55686 21.3823 10.0346 20.8494 10.1471C20.4581 10.2296 20.1741 10.5819 20.1741 10.9846V12.5663L18.0317 10.4239C17.8699 10.2618 17.6544 10.1724 17.4252 10.1724H5.11296C4.47266 10.1724 3.95167 9.65143 3.95167 9.01112V5.66137C3.95167 5.32961 3.68285 5.06079 3.35108 5.06079C3.01932 5.06079 2.7505 5.32961 2.7505 5.66137V9.01112C2.7505 10.3138 3.81025 11.3736 5.11296 11.3736Z" fill="white" fill-opacity="0.5"/>
<path d="M40.3994 27.7022C40.7312 27.7022 41 27.4333 41 27.1016V26.6392C41 24.7946 39.7638 23.1435 37.9939 22.6238L34.7377 21.6677C34.6438 21.5817 34.5356 21.5102 34.4161 21.457L33.737 21.1544C33.5561 21.0739 33.3645 21.033 33.1736 21.0306V19.6015C34.238 18.8158 34.9813 17.614 35.1539 16.23C35.6921 16.0779 36.0875 15.5824 36.0875 14.9963V10.6984C36.0875 9.69179 35.2984 8.86603 34.3063 8.80725C34.2247 7.83726 33.4092 7.073 32.4184 7.073H27.9594C25.9862 7.073 24.3809 8.67833 24.3809 10.6515V14.9963C24.3809 15.5825 24.7763 16.078 25.3145 16.2301C25.4873 17.6139 26.2306 18.8157 27.2949 19.6014V21.0282C27.1056 21.0318 26.916 21.0731 26.7376 21.1531L26.0716 21.4521C25.9531 21.5054 25.8457 21.5767 25.7525 21.6624L22.4765 22.6239C20.7064 23.1433 19.4701 24.7946 19.4701 26.6394V29.9009C19.0525 29.5597 18.5664 29.3007 18.0355 29.1449C17.9827 29.1294 18.2905 29.1915 13.3595 28.2517V28.2387C14.1386 28.0953 14.9082 27.8929 15.6606 27.6317C17.3281 27.0528 18.4134 25.3375 17.5637 22.5032C17.2827 21.5659 17.1402 20.5947 17.1398 19.6139C17.1387 15.9457 14.1536 12.9615 10.4853 12.9615H10.4853C6.81713 12.9615 3.83198 15.9457 3.83078 19.6164C3.83046 20.5948 3.68792 21.5661 3.407 22.5032C2.5661 25.3089 3.61777 27.0442 5.30998 27.6317C6.06183 27.8927 6.83082 28.0949 7.60926 28.2384C2.69951 29.1888 2.98691 29.1299 2.93542 29.145C1.2071 29.6521 0 31.2644 0 33.0658V38.736C0 39.9899 1.01547 40.9992 2.26317 40.9992H2.26781C2.27814 40.9992 38.7266 40.9625 38.7369 40.9625C39.9849 40.9625 41.0001 39.9473 41.0001 38.6994V29.9093C41.0001 29.5775 40.7313 29.3087 40.3995 29.3087C40.0677 29.3087 39.7989 29.5775 39.7989 29.9093V31.2985H32.7787L31.7161 26.5607L32.291 25.5304C32.5192 25.4863 32.7376 25.3772 32.9182 25.2037L34.7638 23.4065C34.8822 23.2912 34.9734 23.1549 35.0347 23.0069L37.6557 23.7763C38.9175 24.1468 39.7988 25.3241 39.7988 26.6392V27.1016C39.7988 27.4333 40.0676 27.7022 40.3994 27.7022ZM25.5821 10.6514C25.5821 9.34057 26.6486 8.27409 27.9594 8.27409H32.4184C32.8007 8.27409 33.1118 8.58511 33.1118 8.96741C33.1118 9.53956 33.5772 10.005 34.1494 10.005H34.193C34.5753 10.005 34.8864 10.316 34.8864 10.6983V12.9233H34.5928C34.4275 12.9233 34.2931 12.7888 34.2931 12.6235V12.1308C34.2931 11.0696 33.2511 10.3291 32.2553 10.6581C30.9524 11.0887 29.5175 11.0888 28.213 10.6579C27.2083 10.3258 26.1755 11.0727 26.1755 12.1307V12.6235C26.1755 12.7888 26.0409 12.9233 25.8756 12.9233H25.5822V10.6514H25.5821ZM26.4849 15.8509C26.4573 15.4169 26.0962 15.0769 25.6626 15.0769C25.6181 15.0769 25.582 15.0407 25.582 14.9962V14.1244H25.8755C26.7032 14.1244 27.3765 13.4511 27.3765 12.6235V12.1307C27.3765 11.8928 27.6074 11.7231 27.8378 11.7989C29.3838 12.3097 31.0864 12.3095 32.6322 11.7986C32.8589 11.7233 33.0918 11.892 33.0918 12.1307V12.6235C33.0918 13.4511 33.7651 14.1244 34.5927 14.1244H34.8863V14.9962C34.8863 15.0406 34.8501 15.0768 34.8056 15.0768C34.3721 15.0768 34.0109 15.4168 33.9834 15.8511C33.859 17.8235 32.2121 19.3686 30.2341 19.3686C28.2561 19.3687 26.6093 17.8236 26.4849 15.8509ZM30.7272 25.8678H29.7308L29.3441 25.2036L30.2797 24.4222L31.1288 25.1482L30.7272 25.8678ZM31.5475 31.2985H28.9178L29.8663 27.069H30.5989L31.5475 31.2985ZM30.2777 22.8812L28.4961 21.5499V20.2546C29.0382 20.4585 29.6243 20.5698 30.2342 20.5698C30.8442 20.5698 31.4303 20.4585 31.9724 20.2546V21.5689L30.2777 22.8812ZM27.2297 22.2488C27.3048 22.215 27.3924 22.2247 27.4585 22.2741C28.0545 22.7194 28.4534 23.0175 29.3159 23.662L28.4526 24.3831C28.4483 24.3867 28.4433 24.3891 28.4382 24.3905C28.4357 24.3908 28.4331 24.3912 28.4305 24.3916C28.4213 24.3919 28.4121 24.3889 28.4049 24.3824L26.5703 22.545L27.2297 22.2488ZM5.70405 26.4969C4.18584 25.9698 4.09792 24.3812 4.55781 22.848C4.87219 21.799 5.03179 20.7119 5.03211 19.6142C5.03315 16.6081 7.47946 14.1626 10.4855 14.1626C13.4916 14.1626 15.9379 16.6081 15.9388 19.6167C15.9392 20.7117 16.0987 21.7989 16.4132 22.848C16.873 24.3816 16.785 25.9698 15.2669 26.4969C12.1836 27.5673 8.78737 27.5675 5.70405 26.4969ZM12.1584 28.4125V28.6248C11.5004 30.0406 9.45923 30.0347 8.81076 28.6119V28.4124C9.91031 28.5287 11.0323 28.5315 12.1584 28.4125ZM19.7697 39.6073C19.7697 39.6906 19.7043 39.7585 19.6207 39.7618C19.6187 39.7619 19.6166 39.762 19.6145 39.7622C19.6141 39.7622 19.6137 39.7622 19.6133 39.7622C19.6089 39.7624 19.6043 39.7627 19.5996 39.763L2.26533 39.798H2.26325C1.67844 39.798 1.20117 39.3249 1.20117 38.736V33.0658C1.20117 31.803 2.04143 30.6717 3.24797 30.3051L7.87448 29.4103C9.0385 31.377 11.9273 31.3711 13.0929 29.4234L17.724 30.3052C18.9645 30.6824 19.7697 31.8231 19.7697 33.0656V39.6073ZM20.6714 26.6394C20.6714 25.3241 21.5528 24.1468 22.8149 23.7763L25.4565 23.001C25.5157 23.1439 25.6027 23.2758 25.7152 23.3884L27.5598 25.2358C27.5618 25.2378 27.5639 25.2398 27.5659 25.2418C27.7378 25.4091 27.9459 25.5172 28.1648 25.5651L28.748 26.5667L27.6868 31.2983H20.6714V26.6394ZM39.7988 32.4996V38.6994C39.7988 39.2849 39.3224 39.7614 38.7368 39.7614H20.9623C20.968 39.7108 20.9709 39.6594 20.9709 39.6073V33.0657C20.9709 32.8757 20.9576 32.6867 20.9315 32.4997C23.5677 32.4996 35.6469 32.4996 39.7988 32.4996ZM32.0831 24.3403C32.0759 24.3471 32.067 24.3506 32.0579 24.3506C32.0532 24.3496 32.0485 24.3487 32.0437 24.3478C32.0403 24.3463 32.037 24.3444 32.034 24.3418L31.2353 23.6589L33.0168 22.2795C33.0829 22.2281 33.1716 22.2175 33.2481 22.2516L33.9204 22.5511L32.0831 24.3403Z" fill="white" fill-opacity="0.5"/>
</svg>
