<svg width="148" height="127" viewBox="0 0 148 127" fill="none" xmlns="http://www.w3.org/2000/svg">
<path d="M118.161 31.2962L119.097 31.6496L118.161 31.2962ZM52.4895 89.8546L52.7337 90.8243L52.4895 89.8546ZM3.14163 101.554C2.85831 102.028 3.01294 102.642 3.48702 102.925L11.2125 107.542C11.6866 107.825 12.3006 107.671 12.5839 107.197C12.8672 106.723 12.7126 106.109 12.2385 105.825L5.37141 101.721L9.47543 94.8542C9.75876 94.3801 9.60412 93.7661 9.13005 93.4828C8.65597 93.1994 8.04199 93.3541 7.75866 93.8281L3.14163 101.554ZM127.535 3.64668L117.226 30.9429L119.097 31.6496L129.406 4.35331L127.535 3.64668ZM52.2452 88.8849L3.7558 101.097L4.24424 103.036L52.7337 90.8243L52.2452 88.8849ZM117.226 30.9429C106.354 59.7281 82.0832 81.3702 52.2452 88.8849L52.7337 90.8243C83.2065 83.1498 107.994 61.0472 119.097 31.6496L117.226 30.9429Z" fill="url(#paint0_linear)" fill-opacity="0.4"/>
<defs>
<linearGradient id="paint0_linear" x1="8" y1="121.5" x2="158" y2="-42.5" gradientUnits="userSpaceOnUse">
<stop stop-color="white"/>
<stop offset="1" stop-color="white" stop-opacity="0"/>
</linearGradient>
</defs>
</svg>
